# xmcd CD database file
#
# Track frame offsets:
#	150
#	33859
#	72442
#	112696
#	151166
#	208347
#	234692
#
# Disc length: 3529 seconds
#
# Revision: 0
# Processed by: cddbd v1.5.2PL0 Copyright (c) Steve Scherf et al.
# Submitted via: CDex 1.51
#
DISCID=560dc707
DTITLE=Arild Andersen - The Rose Window
DYEAR=2016
DGENRE=Jazz
TTITLE0=Rose Window
TTITLE1=Science
TTITLE2=The Day
TTITLE3=Outhouse
TTITLE4=Hyperborean
TTITLE5=Dreamhose
TTITLE6=Interview with Arild Anderson
EXTD=YEAR: 2016
EXTT0=
EXTT1=
EXTT2=
EXTT3=
EXTT4=
EXTT5=
EXTT6=
PLAYORDER=
